{
    "asset" : {
        "generator" : "Khronos glTF Blender I/O v1.3.48",
        "version" : "2.0"
    },
    "extensionsUsed" : [
        "KHR_texture_transform"
    ],
    "extensionsRequired" : [
        "KHR_texture_transform"
    ],
    "scene" : 0,
    "scenes" : [
        {
            "name" : "Scene",
            "nodes" : [
                0,
                1,
                2
            ]
        }
    ],
    "nodes" : [
        {
            "name" : "Light",
            "rotation" : [
                0.16907575726509094,
                0.7558803558349609,
                -0.27217137813568115,
                0.570947527885437
            ],
            "translation" : [
                4.076245307922363,
                5.903861999511719,
                -1.0054539442062378
            ]
        },
        {
            "name" : "Camera",
            "rotation" : [
                0.483536034822464,
                0.33687159419059753,
                -0.20870360732078552,
                0.7804827094078064
            ],
            "translation" : [
                7.358891487121582,
                4.958309173583984,
                6.925790786743164
            ]
        },
        {
            "mesh" : 0,
            "name" : "DB_IndoorFurniture_08_11_Bonus01",
            "rotation" : [
                0,
                0.3826834559440613,
                0,
                0.9238795042037964
            ],
            "scale" : [
                0.0011313731083646417,
                0.0011313732247799635,
                0.0011313731083646417
            ],
            "translation" : [
                0,
                0.4653414487838745,
                0.009368999861180782
            ]
        }
    ],
    "materials" : [
        {
            "doubleSided" : true,
            "emissiveFactor" : [
                0,
                0,
                0
            ],
            "name" : "DB_IndoorFurniture_08_11_Bonus01_03",
            "pbrMetallicRoughness" : {
                "baseColorFactor" : [
                    0.05268842354416847,
                    0.05232749879360199,
                    0.05090590938925743,
                    1
                ],
                "roughnessFactor" : 0.4343145787715912
            }
        },
        {
            "doubleSided" : true,
            "emissiveFactor" : [
                0,
                0,
                0
            ],
            "name" : "DB_IndoorFurniture_08_11_Bonus01_05",
            "pbrMetallicRoughness" : {
                "baseColorTexture" : {
                    "index" : 0,
                    "texCoord" : 0
                },
                "roughnessFactor" : 0.4343145787715912
            }
        },
        {
            "doubleSided" : true,
            "emissiveFactor" : [
                0,
                0,
                0
            ],
            "name" : "DB_IndoorFurniture_08_11_Bonus01_04",
            "pbrMetallicRoughness" : {
                "baseColorTexture" : {
                    "extensions" : {
                        "KHR_texture_transform" : {
                            "offset" : [
                                -0.6974999904632568,
                                -1.0174998790025724
                            ],
                            "scale" : [
                                1.4999999552965178,
                                1.4999999552965178
                            ]
                        }
                    },
                    "index" : 1,
                    "texCoord" : 0
                },
                "roughnessFactor" : 0.4343145787715912
            }
        },
        {
            "doubleSided" : true,
            "emissiveFactor" : [
                0,
                0,
                0
            ],
            "name" : "DB_IndoorFurniture_08_11_Bonus01_06",
            "pbrMetallicRoughness" : {
                "baseColorFactor" : [
                    0.019607843831181526,
                    0.019607843831181526,
                    0.019607843831181526,
                    1
                ],
                "roughnessFactor" : 0.4343145787715912
            }
        }
    ],
    "meshes" : [
        {
            "name" : "Mesh",
            "primitives" : [
                {
                    "attributes" : {
                        "POSITION" : 0,
                        "NORMAL" : 1,
                        "TEXCOORD_0" : 2
                    },
                    "indices" : 3,
                    "material" : 0
                },
                {
                    "attributes" : {
                        "POSITION" : 4,
                        "NORMAL" : 5,
                        "TEXCOORD_0" : 6
                    },
                    "indices" : 7,
                    "material" : 0
                },
                {
                    "attributes" : {
                        "POSITION" : 8,
                        "NORMAL" : 9,
                        "TEXCOORD_0" : 10
                    },
                    "indices" : 11,
                    "material" : 1
                },
                {
                    "attributes" : {
                        "POSITION" : 12,
                        "NORMAL" : 13,
                        "TEXCOORD_0" : 14
                    },
                    "indices" : 15,
                    "material" : 2
                },
                {
                    "attributes" : {
                        "POSITION" : 16,
                        "NORMAL" : 17,
                        "TEXCOORD_0" : 18
                    },
                    "indices" : 19,
                    "material" : 3
                }
            ]
        }
    ],
    "textures" : [
        {
            "source" : 0
        },
        {
            "source" : 1
        }
    ],
    "images" : [
        {
            "bufferView" : 12,
            "mimeType" : "image/jpeg",
            "name" : "DB_IndoorFurniture_08_11_Bonus01_02"
        },
        {
            "bufferView" : 17,
            "mimeType" : "image/jpeg",
            "name" : "DB_IndoorFurniture_08_11_Bonus01_01"
        }
    ],
    "accessors" : [
        {
            "bufferView" : 0,
            "componentType" : 5126,
            "count" : 588,
            "max" : [
                185.12301635742188,
                270.656005859375,
                150.67376708984375
            ],
            "min" : [
                -185.12298583984375,
                62.088958740234375,
                -186.45425415039062
            ],
            "type" : "VEC3"
        },
        {
            "bufferView" : 1,
            "componentType" : 5126,
            "count" : 588,
            "type" : "VEC3"
        },
        {
            "bufferView" : 2,
            "componentType" : 5126,
            "count" : 588,
            "type" : "VEC2"
        },
        {
            "bufferView" : 3,
            "componentType" : 5123,
            "count" : 3216,
            "type" : "SCALAR"
        },
        {
            "bufferView" : 4,
            "componentType" : 5126,
            "count" : 1388,
            "max" : [
                214.43698120117188,
                335.84600830078125,
                236.6356201171875
            ],
            "min" : [
                -214.43698120117188,
                -403.5679931640625,
                -253.63088989257812
            ],
            "type" : "VEC3"
        },
        {
            "bufferView" : 5,
            "componentType" : 5126,
            "count" : 1388,
            "type" : "VEC3"
        },
        {
            "bufferView" : 6,
            "componentType" : 5126,
            "count" : 1388,
            "type" : "VEC2"
        },
        {
            "bufferView" : 7,
            "componentType" : 5123,
            "count" : 7608,
            "type" : "SCALAR"
        },
        {
            "bufferView" : 8,
            "componentType" : 5126,
            "count" : 912,
            "max" : [
                208.447021484375,
                409.64703369140625,
                235.85302734375
            ],
            "min" : [
                -208.44696044921875,
                6.97198486328125,
                -244.14230346679688
            ],
            "type" : "VEC3"
        },
        {
            "bufferView" : 9,
            "componentType" : 5126,
            "count" : 912,
            "type" : "VEC3"
        },
        {
            "bufferView" : 10,
            "componentType" : 5126,
            "count" : 912,
            "type" : "VEC2"
        },
        {
            "bufferView" : 11,
            "componentType" : 5123,
            "count" : 4500,
            "type" : "SCALAR"
        },
        {
            "bufferView" : 13,
            "componentType" : 5126,
            "count" : 1830,
            "max" : [
                208.37603759765625,
                409.45904541015625,
                235.87301635742188
            ],
            "min" : [
                -208.3759765625,
                6.97198486328125,
                -244.14230346679688
            ],
            "type" : "VEC3"
        },
        {
            "bufferView" : 14,
            "componentType" : 5126,
            "count" : 1830,
            "type" : "VEC3"
        },
        {
            "bufferView" : 15,
            "componentType" : 5126,
            "count" : 1830,
            "type" : "VEC2"
        },
        {
            "bufferView" : 16,
            "componentType" : 5123,
            "count" : 10056,
            "type" : "SCALAR"
        },
        {
            "bufferView" : 18,
            "componentType" : 5126,
            "count" : 1048,
            "max" : [
                215.02072143554688,
                -403.17877197265625,
                237.31747436523438
            ],
            "min" : [
                -215.020751953125,
                -411.3067626953125,
                -253.88031005859375
            ],
            "type" : "VEC3"
        },
        {
            "bufferView" : 19,
            "componentType" : 5126,
            "count" : 1048,
            "type" : "VEC3"
        },
        {
            "bufferView" : 20,
            "componentType" : 5126,
            "count" : 1048,
            "type" : "VEC2"
        },
        {
            "bufferView" : 21,
            "componentType" : 5123,
            "count" : 5196,
            "type" : "SCALAR"
        }
    ],
    "bufferViews" : [
        {
            "buffer" : 0,
            "byteLength" : 7056,
            "byteOffset" : 0
        },
        {
            "buffer" : 0,
            "byteLength" : 7056,
            "byteOffset" : 7056
        },
        {
            "buffer" : 0,
            "byteLength" : 4704,
            "byteOffset" : 14112
        },
        {
            "buffer" : 0,
            "byteLength" : 6432,
            "byteOffset" : 18816
        },
        {
            "buffer" : 0,
            "byteLength" : 16656,
            "byteOffset" : 25248
        },
        {
            "buffer" : 0,
            "byteLength" : 16656,
            "byteOffset" : 41904
        },
        {
            "buffer" : 0,
            "byteLength" : 11104,
            "byteOffset" : 58560
        },
        {
            "buffer" : 0,
            "byteLength" : 15216,
            "byteOffset" : 69664
        },
        {
            "buffer" : 0,
            "byteLength" : 10944,
            "byteOffset" : 84880
        },
        {
            "buffer" : 0,
            "byteLength" : 10944,
            "byteOffset" : 95824
        },
        {
            "buffer" : 0,
            "byteLength" : 7296,
            "byteOffset" : 106768
        },
        {
            "buffer" : 0,
            "byteLength" : 9000,
            "byteOffset" : 114064
        },
        {
            "buffer" : 0,
            "byteLength" : 30721,
            "byteOffset" : 123064
        },
        {
            "buffer" : 0,
            "byteLength" : 21960,
            "byteOffset" : 153788
        },
        {
            "buffer" : 0,
            "byteLength" : 21960,
            "byteOffset" : 175748
        },
        {
            "buffer" : 0,
            "byteLength" : 14640,
            "byteOffset" : 197708
        },
        {
            "buffer" : 0,
            "byteLength" : 20112,
            "byteOffset" : 212348
        },
        {
            "buffer" : 0,
            "byteLength" : 110426,
            "byteOffset" : 232460
        },
        {
            "buffer" : 0,
            "byteLength" : 12576,
            "byteOffset" : 342888
        },
        {
            "buffer" : 0,
            "byteLength" : 12576,
            "byteOffset" : 355464
        },
        {
            "buffer" : 0,
            "byteLength" : 8384,
            "byteOffset" : 368040
        },
        {
            "buffer" : 0,
            "byteLength" : 10392,
            "byteOffset" : 376424
        }
    ],
    "buffers" : [
        {
            "byteLength" : 386816,
            "uri" : "data:application/octet-stream;base64,"
        }
    ]
}
