{
    "asset" : {
        "generator" : "Khronos glTF Blender I/O v1.5.17",
        "version" : "2.0"
    },
    "extensionsUsed" : [
        "KHR_lights_punctual"
    ],
    "extensionsRequired" : [
        "KHR_lights_punctual"
    ],
    "extensions" : {
        "KHR_lights_punctual" : {
            "lights" : [
                {
                    "color" : [
                        1,
                        1,
                        1
                    ],
                    "intensity" : 50,
                    "type" : "point",
                    "name" : "Light"
                },
                {
                    "color" : [
                        1,
                        1,
                        1
                    ],
                    "intensity" : 50,
                    "type" : "point",
                    "name" : "Light.001"
                },
                {
                    "color" : [
                        1,
                        1,
                        1
                    ],
                    "intensity" : 50,
                    "type" : "point",
                    "name" : "Light.002"
                }
            ]
        }
    },
    "scene" : 0,
    "scenes" : [
        {
            "name" : "Scene",
            "nodes" : [
                1,
                2,
                3,
                4,
                5,
                6,
                7,
                8,
                9,
                11,
                13
            ]
        }
    ],
    "nodes" : [
        {
            "extensions" : {
                "KHR_lights_punctual" : {
                    "light" : 0
                }
            },
            "name" : "Light_Orientation",
            "rotation" : [
                -0.7071067690849304,
                0,
                0,
                0.7071067690849304
            ]
        },
        {
            "children" : [
                0
            ],
            "name" : "Light",
            "rotation" : [
                0.16907575726509094,
                0.7558803558349609,
                -0.27217137813568115,
                0.570947527885437
            ],
            "translation" : [
                3.0015029907226562,
                3.355834722518921,
                -0.16606104373931885
            ]
        },
        {
            "name" : "Camera",
            "rotation" : [
                0.483536034822464,
                0.33687159419059753,
                -0.20870360732078552,
                0.7804827094078064
            ],
            "translation" : [
                7.358891487121582,
                4.958309173583984,
                6.925790786743164
            ]
        },
        {
            "mesh" : 0,
            "name" : "gros_cube001",
            "rotation" : [
                0,
                -0.7071092128753662,
                0,
                0.7071043252944946
            ],
            "scale" : [
                0.016051707789301872,
                0.016051707789301872,
                0.016051707789301872
            ],
            "translation" : [
                -0.24912703037261963,
                1.5049339532852173,
                -0.28938183188438416
            ]
        },
        {
            "mesh" : 1,
            "name" : "moyein_gros_cube001",
            "rotation" : [
                0,
                -0.7071092128753662,
                0,
                0.7071043252944946
            ],
            "scale" : [
                0.0240921787917614,
                0.0240921787917614,
                0.0240921787917614
            ],
            "translation" : [
                0.5037455558776855,
                1.51195228099823,
                -0.4893611669540405
            ]
        },
        {
            "mesh" : 2,
            "name" : "moyen_cube001",
            "rotation" : [
                0,
                -0.7071092128753662,
                0,
                0.7071043252944946
            ],
            "scale" : [
                0.025714097544550896,
                0.025714097544550896,
                0.025714097544550896
            ],
            "translation" : [
                0.6006691455841064,
                1.5090516805648804,
                0.20084738731384277
            ]
        },
        {
            "mesh" : 3,
            "name" : "moyen_petit_cube001",
            "rotation" : [
                0,
                -0.7071092128753662,
                0,
                0.7071043252944946
            ],
            "scale" : [
                0.022841254249215126,
                0.022841254249215126,
                0.022841254249215126
            ],
            "translation" : [
                -0.342223584651947,
                1.5091561079025269,
                0.6409786343574524
            ]
        },
        {
            "mesh" : 4,
            "name" : "petit_cube001",
            "rotation" : [
                0,
                -0.7071092128753662,
                0,
                0.7071043252944946
            ],
            "scale" : [
                0.022841254249215126,
                0.022841254249215126,
                0.022841254249215126
            ],
            "translation" : [
                -0.6712652444839478,
                1.5091561079025269,
                0.24485498666763306
            ]
        },
        {
            "mesh" : 5,
            "name" : "tres_gros_cube001",
            "rotation" : [
                0,
                -0.7071092128753662,
                0,
                0.7071043252944946
            ],
            "scale" : [
                0.02539999969303608,
                0.02539999969303608,
                0.02539999969303608
            ],
            "translation" : [
                0.02567499876022339,
                0,
                -0.01144202146679163
            ]
        },
        {
            "mesh" : 6,
            "name" : "tres_petit_cube001",
            "rotation" : [
                0,
                -0.7071092128753662,
                0,
                0.7071043252944946
            ],
            "scale" : [
                0.022841254249215126,
                0.022841254249215126,
                0.022841254249215126
            ],
            "translation" : [
                0.2624354362487793,
                2.066071033477783,
                -0.24668113887310028
            ]
        },
        {
            "extensions" : {
                "KHR_lights_punctual" : {
                    "light" : 1
                }
            },
            "name" : "Light.001_Orientation",
            "rotation" : [
                -0.7071067690849304,
                0,
                0,
                0.7071067690849304
            ]
        },
        {
            "children" : [
                10
            ],
            "name" : "Light.001",
            "rotation" : [
                0.16907575726509094,
                0.7558803558349609,
                -0.27217137813568115,
                0.570947527885437
            ],
            "translation" : [
                0.07482457160949707,
                3.355834722518921,
                -3.004331350326538
            ]
        },
        {
            "extensions" : {
                "KHR_lights_punctual" : {
                    "light" : 2
                }
            },
            "name" : "Light.002_Orientation",
            "rotation" : [
                -0.7071067690849304,
                0,
                0,
                0.7071067690849304
            ]
        },
        {
            "children" : [
                12
            ],
            "name" : "Light.002",
            "rotation" : [
                0.16907575726509094,
                0.7558803558349609,
                -0.27217137813568115,
                0.570947527885437
            ],
            "translation" : [
                -2.8650684356689453,
                3.355834722518921,
                -0.17908501625061035
            ]
        }
    ],
    "materials" : [
        {
            "doubleSided" : true,
            "name" : "cube__gros_moien",
            "pbrMetallicRoughness" : {
                "baseColorTexture" : {
                    "index" : 0
                },
                "metallicFactor" : 0,
                "roughnessFactor" : 0.5527864098548889
            }
        },
        {
            "doubleSided" : true,
            "name" : "moien_peutit_cube",
            "pbrMetallicRoughness" : {
                "baseColorTexture" : {
                    "index" : 1
                },
                "metallicFactor" : 0,
                "roughnessFactor" : 0.5527864098548889
            }
        },
        {
            "doubleSided" : true,
            "name" : "Material #5",
            "pbrMetallicRoughness" : {
                "baseColorTexture" : {
                    "index" : 2
                },
                "metallicFactor" : 0,
                "roughnessFactor" : 0.5527864098548889
            }
        },
        {
            "doubleSided" : true,
            "name" : "Material #7",
            "pbrMetallicRoughness" : {
                "baseColorTexture" : {
                    "index" : 3
                },
                "metallicFactor" : 0,
                "roughnessFactor" : 0.5527864098548889
            }
        },
        {
            "doubleSided" : true,
            "name" : "Material #8",
            "pbrMetallicRoughness" : {
                "baseColorTexture" : {
                    "index" : 4
                },
                "metallicFactor" : 0,
                "roughnessFactor" : 0.5527864098548889
            }
        },
        {
            "doubleSided" : true,
            "name" : "gros_cube",
            "pbrMetallicRoughness" : {
                "baseColorTexture" : {
                    "index" : 5
                },
                "metallicFactor" : 0,
                "roughnessFactor" : 0.5527864098548889
            }
        },
        {
            "doubleSided" : true,
            "name" : "tout_peutit",
            "pbrMetallicRoughness" : {
                "baseColorTexture" : {
                    "index" : 6
                },
                "metallicFactor" : 0,
                "roughnessFactor" : 0.5527864098548889
            }
        }
    ],
    "meshes" : [
        {
            "name" : "Mesh",
            "primitives" : [
                {
                    "attributes" : {
                        "POSITION" : 0,
                        "NORMAL" : 1,
                        "TEXCOORD_0" : 2
                    },
                    "indices" : 3,
                    "material" : 0
                }
            ]
        },
        {
            "name" : "Mesh.001",
            "primitives" : [
                {
                    "attributes" : {
                        "POSITION" : 4,
                        "NORMAL" : 5,
                        "TEXCOORD_0" : 6
                    },
                    "indices" : 3,
                    "material" : 1
                }
            ]
        },
        {
            "name" : "Mesh.002",
            "primitives" : [
                {
                    "attributes" : {
                        "POSITION" : 7,
                        "NORMAL" : 8,
                        "TEXCOORD_0" : 9
                    },
                    "indices" : 10,
                    "material" : 2
                }
            ]
        },
        {
            "name" : "Mesh.003",
            "primitives" : [
                {
                    "attributes" : {
                        "POSITION" : 11,
                        "NORMAL" : 12,
                        "TEXCOORD_0" : 13
                    },
                    "indices" : 3,
                    "material" : 3
                }
            ]
        },
        {
            "name" : "Mesh.004",
            "primitives" : [
                {
                    "attributes" : {
                        "POSITION" : 14,
                        "NORMAL" : 15,
                        "TEXCOORD_0" : 16
                    },
                    "indices" : 17,
                    "material" : 4
                }
            ]
        },
        {
            "name" : "Mesh.006",
            "primitives" : [
                {
                    "attributes" : {
                        "POSITION" : 18,
                        "NORMAL" : 19,
                        "TEXCOORD_0" : 20
                    },
                    "indices" : 10,
                    "material" : 5
                }
            ]
        },
        {
            "name" : "Mesh.007",
            "primitives" : [
                {
                    "attributes" : {
                        "POSITION" : 21,
                        "NORMAL" : 22,
                        "TEXCOORD_0" : 23
                    },
                    "indices" : 3,
                    "material" : 6
                }
            ]
        }
    ],
    "textures" : [
        {
            "sampler" : 0,
            "source" : 0
        },
        {
            "sampler" : 0,
            "source" : 1
        },
        {
            "sampler" : 0,
            "source" : 2
        },
        {
            "sampler" : 0,
            "source" : 3
        },
        {
            "sampler" : 0,
            "source" : 1
        },
        {
            "sampler" : 0,
            "source" : 4
        },
        {
            "sampler" : 0,
            "source" : 5
        }
    ],
    "images" : [
        {
            "bufferView" : 4,
            "mimeType" : "image/jpeg",
            "name" : "texture_moien_cube_base_color"
        },
        {
            "bufferView" : 8,
            "mimeType" : "image/jpeg",
            "name" : "texture_peutit_moien_cube_base_color"
        },
        {
            "bufferView" : 13,
            "mimeType" : "image/jpeg",
            "name" : "texture_tout_moien_cube_base_color"
        },
        {
            "bufferView" : 17,
            "mimeType" : "image/jpeg",
            "name" : "texture_tout_petit_gros_cube__base_color"
        },
        {
            "bufferView" : 25,
            "mimeType" : "image/jpeg",
            "name" : "texture_gros_cube_base_color"
        },
        {
            "bufferView" : 29,
            "mimeType" : "image/jpeg",
            "name" : "texture_tout_peutit_cube_base_color"
        }
    ],
    "accessors" : [
        {
            "bufferView" : 0,
            "componentType" : 5126,
            "count" : 96,
            "max" : [
                29.75,
                59.5,
                29.75
            ],
            "min" : [
                -29.75,
                0,
                -29.75
            ],
            "type" : "VEC3"
        },
        {
            "bufferView" : 1,
            "componentType" : 5126,
            "count" : 96,
            "type" : "VEC3"
        },
        {
            "bufferView" : 2,
            "componentType" : 5126,
            "count" : 96,
            "type" : "VEC2"
        },
        {
            "bufferView" : 3,
            "componentType" : 5123,
            "count" : 324,
            "type" : "SCALAR"
        },
        {
            "bufferView" : 5,
            "componentType" : 5126,
            "count" : 96,
            "max" : [
                11.5,
                23,
                11.5
            ],
            "min" : [
                -11.5,
                0,
                -11.5
            ],
            "type" : "VEC3"
        },
        {
            "bufferView" : 6,
            "componentType" : 5126,
            "count" : 96,
            "type" : "VEC3"
        },
        {
            "bufferView" : 7,
            "componentType" : 5126,
            "count" : 96,
            "type" : "VEC2"
        },
        {
            "bufferView" : 9,
            "componentType" : 5126,
            "count" : 96,
            "max" : [
                7,
                14,
                7
            ],
            "min" : [
                -7,
                0,
                -7
            ],
            "type" : "VEC3"
        },
        {
            "bufferView" : 10,
            "componentType" : 5126,
            "count" : 96,
            "type" : "VEC3"
        },
        {
            "bufferView" : 11,
            "componentType" : 5126,
            "count" : 96,
            "type" : "VEC2"
        },
        {
            "bufferView" : 12,
            "componentType" : 5123,
            "count" : 324,
            "type" : "SCALAR"
        },
        {
            "bufferView" : 14,
            "componentType" : 5126,
            "count" : 96,
            "max" : [
                4.5,
                9,
                4.5
            ],
            "min" : [
                -4.5,
                0,
                -4.5
            ],
            "type" : "VEC3"
        },
        {
            "bufferView" : 15,
            "componentType" : 5126,
            "count" : 96,
            "type" : "VEC3"
        },
        {
            "bufferView" : 16,
            "componentType" : 5126,
            "count" : 96,
            "type" : "VEC2"
        },
        {
            "bufferView" : 18,
            "componentType" : 5126,
            "count" : 96,
            "max" : [
                2.5,
                5,
                2.5
            ],
            "min" : [
                -2.5,
                0,
                -2.5
            ],
            "type" : "VEC3"
        },
        {
            "bufferView" : 19,
            "componentType" : 5126,
            "count" : 96,
            "type" : "VEC3"
        },
        {
            "bufferView" : 20,
            "componentType" : 5126,
            "count" : 96,
            "type" : "VEC2"
        },
        {
            "bufferView" : 21,
            "componentType" : 5123,
            "count" : 324,
            "type" : "SCALAR"
        },
        {
            "bufferView" : 22,
            "componentType" : 5126,
            "count" : 96,
            "max" : [
                29.75,
                59.5,
                29.75
            ],
            "min" : [
                -29.75,
                0,
                -29.75
            ],
            "type" : "VEC3"
        },
        {
            "bufferView" : 23,
            "componentType" : 5126,
            "count" : 96,
            "type" : "VEC3"
        },
        {
            "bufferView" : 24,
            "componentType" : 5126,
            "count" : 96,
            "type" : "VEC2"
        },
        {
            "bufferView" : 26,
            "componentType" : 5126,
            "count" : 96,
            "max" : [
                1.5,
                3,
                1.5
            ],
            "min" : [
                -1.5,
                0,
                -1.5
            ],
            "type" : "VEC3"
        },
        {
            "bufferView" : 27,
            "componentType" : 5126,
            "count" : 96,
            "type" : "VEC3"
        },
        {
            "bufferView" : 28,
            "componentType" : 5126,
            "count" : 96,
            "type" : "VEC2"
        }
    ],
    "bufferViews" : [
        {
            "buffer" : 0,
            "byteLength" : 1152,
            "byteOffset" : 0
        },
        {
            "buffer" : 0,
            "byteLength" : 1152,
            "byteOffset" : 1152
        },
        {
            "buffer" : 0,
            "byteLength" : 768,
            "byteOffset" : 2304
        },
        {
            "buffer" : 0,
            "byteLength" : 648,
            "byteOffset" : 3072
        },
        {
            "buffer" : 0,
            "byteLength" : 458838,
            "byteOffset" : 3720
        },
        {
            "buffer" : 0,
            "byteLength" : 1152,
            "byteOffset" : 462560
        },
        {
            "buffer" : 0,
            "byteLength" : 1152,
            "byteOffset" : 463712
        },
        {
            "buffer" : 0,
            "byteLength" : 768,
            "byteOffset" : 464864
        },
        {
            "buffer" : 0,
            "byteLength" : 400940,
            "byteOffset" : 465632
        },
        {
            "buffer" : 0,
            "byteLength" : 1152,
            "byteOffset" : 866572
        },
        {
            "buffer" : 0,
            "byteLength" : 1152,
            "byteOffset" : 867724
        },
        {
            "buffer" : 0,
            "byteLength" : 768,
            "byteOffset" : 868876
        },
        {
            "buffer" : 0,
            "byteLength" : 648,
            "byteOffset" : 869644
        },
        {
            "buffer" : 0,
            "byteLength" : 314542,
            "byteOffset" : 870292
        },
        {
            "buffer" : 0,
            "byteLength" : 1152,
            "byteOffset" : 1184836
        },
        {
            "buffer" : 0,
            "byteLength" : 1152,
            "byteOffset" : 1185988
        },
        {
            "buffer" : 0,
            "byteLength" : 768,
            "byteOffset" : 1187140
        },
        {
            "buffer" : 0,
            "byteLength" : 267565,
            "byteOffset" : 1187908
        },
        {
            "buffer" : 0,
            "byteLength" : 1152,
            "byteOffset" : 1455476
        },
        {
            "buffer" : 0,
            "byteLength" : 1152,
            "byteOffset" : 1456628
        },
        {
            "buffer" : 0,
            "byteLength" : 768,
            "byteOffset" : 1457780
        },
        {
            "buffer" : 0,
            "byteLength" : 648,
            "byteOffset" : 1458548
        },
        {
            "buffer" : 0,
            "byteLength" : 1152,
            "byteOffset" : 1459196
        },
        {
            "buffer" : 0,
            "byteLength" : 1152,
            "byteOffset" : 1460348
        },
        {
            "buffer" : 0,
            "byteLength" : 768,
            "byteOffset" : 1461500
        },
        {
            "buffer" : 0,
            "byteLength" : 498997,
            "byteOffset" : 1462268
        },
        {
            "buffer" : 0,
            "byteLength" : 1152,
            "byteOffset" : 1961268
        },
        {
            "buffer" : 0,
            "byteLength" : 1152,
            "byteOffset" : 1962420
        },
        {
            "buffer" : 0,
            "byteLength" : 768,
            "byteOffset" : 1963572
        },
        {
            "buffer" : 0,
            "byteLength" : 359787,
            "byteOffset" : 1964340
        }
    ],
    "samplers" : [
        {
            "magFilter" : 9729,
            "minFilter" : 9987
        }
    ],
    "buffers" : [
        {
            "byteLength" : 2324128,
            "uri" : "data:application/octet-stream;base64,"
        }
    ]
}
