{
    "asset" : {
        "generator" : "Khronos glTF Blender I/O v1.3.48",
        "version" : "2.0"
    },
    "scene" : 0,
    "scenes" : [
        {
            "name" : "Scene",
            "nodes" : [
                0,
                1
            ]
        }
    ],
    "nodes" : [
        {
            "name" : "Camera",
            "rotation" : [
                0.483536034822464,
                0.33687159419059753,
                -0.20870360732078552,
                0.7804827094078064
            ],
            "translation" : [
                7.358891487121582,
                4.958309173583984,
                6.925790786743164
            ]
        },
        {
            "mesh" : 0,
            "name" : "tony_cragg_sculpture.002",
            "rotation" : [
                0.7067879438400269,
                -0.021233107894659042,
                0.02123310975730419,
                0.7067878842353821
            ],
            "scale" : [
                0.006923390552401543,
                0.006923390552401543,
                0.006923391483724117
            ]
        }
    ],
    "materials" : [
        {
            "doubleSided" : true,
            "emissiveFactor" : [
                0,
                0,
                0
            ],
            "name" : "wire_224086086.001",
            "pbrMetallicRoughness" : {
                "baseColorFactor" : [
                    0.3460718095302582,
                    0.3460718095302582,
                    0.3460718095302582,
                    1
                ],
                "metallicFactor" : 1,
                "roughnessFactor" : 0.19090908765792847
            }
        },
        {
            "doubleSided" : true,
            "emissiveFactor" : [
                0,
                0,
                0
            ],
            "name" : "wire_027177088.001",
            "pbrMetallicRoughness" : {
                "baseColorFactor" : [
                    0.3411743640899658,
                    0.3411743640899658,
                    0.3411743640899658,
                    1
                ],
                "metallicFactor" : 0,
                "roughnessFactor" : 1
            }
        }
    ],
    "meshes" : [
        {
            "name" : "tony_cragg_sculpture.002",
            "primitives" : [
                {
                    "attributes" : {
                        "POSITION" : 0,
                        "NORMAL" : 1,
                        "TEXCOORD_0" : 2
                    },
                    "indices" : 3,
                    "material" : 0
                },
                {
                    "attributes" : {
                        "POSITION" : 4,
                        "NORMAL" : 5,
                        "TEXCOORD_0" : 6
                    },
                    "indices" : 7,
                    "material" : 1
                }
            ]
        }
    ],
    "accessors" : [
        {
            "bufferView" : 0,
            "componentType" : 5126,
            "count" : 27962,
            "max" : [
                23.913801193237305,
                29.897899627685547,
                0.19100189208984375
            ],
            "min" : [
                -46.783599853515625,
                -14.534599304199219,
                -180.11221313476562
            ],
            "type" : "VEC3"
        },
        {
            "bufferView" : 1,
            "componentType" : 5126,
            "count" : 27962,
            "type" : "VEC3"
        },
        {
            "bufferView" : 2,
            "componentType" : 5126,
            "count" : 27962,
            "type" : "VEC2"
        },
        {
            "bufferView" : 3,
            "componentType" : 5123,
            "count" : 165024,
            "type" : "SCALAR"
        },
        {
            "bufferView" : 4,
            "componentType" : 5126,
            "count" : 138,
            "max" : [
                38.7406005859375,
                45.80630111694336,
                0
            ],
            "min" : [
                -38.740699768066406,
                -45.80630111694336,
                -1.7618026733398438
            ],
            "type" : "VEC3"
        },
        {
            "bufferView" : 5,
            "componentType" : 5126,
            "count" : 138,
            "type" : "VEC3"
        },
        {
            "bufferView" : 6,
            "componentType" : 5126,
            "count" : 138,
            "type" : "VEC2"
        },
        {
            "bufferView" : 7,
            "componentType" : 5123,
            "count" : 612,
            "type" : "SCALAR"
        }
    ],
    "bufferViews" : [
        {
            "buffer" : 0,
            "byteLength" : 335544,
            "byteOffset" : 0
        },
        {
            "buffer" : 0,
            "byteLength" : 335544,
            "byteOffset" : 335544
        },
        {
            "buffer" : 0,
            "byteLength" : 223696,
            "byteOffset" : 671088
        },
        {
            "buffer" : 0,
            "byteLength" : 330048,
            "byteOffset" : 894784
        },
        {
            "buffer" : 0,
            "byteLength" : 1656,
            "byteOffset" : 1224832
        },
        {
            "buffer" : 0,
            "byteLength" : 1656,
            "byteOffset" : 1226488
        },
        {
            "buffer" : 0,
            "byteLength" : 1104,
            "byteOffset" : 1228144
        },
        {
            "buffer" : 0,
            "byteLength" : 1224,
            "byteOffset" : 1229248
        }
    ],
    "buffers" : [
        {
            "byteLength" : 1230472,
            "uri" : "data:application/octet-stream;base64,"
        }
    ]
}
